<?xml version="1.0" standalone="no"?>
<!DOCTYPE svg PUBLIC "-//W3C//DTD SVG 20010904//EN"
 "http://www.w3.org/TR/2001/REC-SVG-20010904/DTD/svg10.dtd">
<svg version="1.0" xmlns="http://www.w3.org/2000/svg"
 width="700.000000pt" height="700.000000pt" viewBox="0 0 700.000000 700.000000"
 preserveAspectRatio="xMidYMid meet">
<metadata>
Created by potrace 1.14, written by Peter Selinger 2001-2017
</metadata>
<g transform="translate(0.000000,700.000000) scale(0.100000,-0.100000)"
fill="#000000" stroke="none">
<path d="M6500 6964 c-63 -19 -182 -55 -265 -79 -82 -24 -190 -56 -240 -70
-49 -15 -97 -28 -105 -30 -8 -2 -139 -40 -290 -85 -151 -45 -327 -97 -390
-115 -63 -19 -232 -68 -375 -110 -248 -73 -461 -135 -715 -210 -63 -18 -187
-54 -275 -80 -88 -26 -218 -65 -290 -85 -71 -21 -186 -55 -255 -75 -69 -21
-138 -41 -155 -45 -16 -5 -77 -22 -135 -40 -58 -18 -109 -33 -115 -34 -5 -2
-30 -9 -55 -16 -25 -7 -49 -14 -55 -16 -17 -4 -1430 -418 -1803 -529 -194 -57
-386 -120 -425 -139 -231 -111 -425 -316 -503 -531 -55 -151 -52 -49 -52
-2055 l0 -1855 23 -92 c81 -320 307 -551 632 -645 l78 -23 2765 0 2765 0 79
23 c343 99 579 357 645 702 6 37 10 672 10 1895 0 1741 -1 1845 -19 1925 -35
166 -106 303 -218 421 -142 152 -306 235 -532 273 -14 3 -745 5 -1624 5 -880
1 -1597 3 -1595 6 3 2 90 29 194 59 105 30 276 80 380 111 105 31 197 58 205
60 8 2 161 47 340 100 179 53 332 98 340 100 36 10 192 55 270 78 47 14 177
53 290 86 113 33 414 121 670 196 256 76 494 145 530 156 96 27 338 97 390
113 25 8 77 24 116 36 174 51 266 170 260 335 -5 174 -135 304 -309 310 -58 3
-94 -3 -187 -31z m-3812 -3256 c84 -23 154 -115 153 -200 -1 -95 -41 -161
-121 -201 l-51 -25 -694 0 c-475 0 -705 3 -730 11 -47 14 -108 67 -129 112
-54 112 5 258 119 299 33 11 162 14 728 14 439 0 701 -4 725 -10z m2585 -17
c261 -63 466 -196 640 -417 42 -54 118 -198 146 -279 40 -111 61 -229 63 -345
3 -148 -8 -224 -48 -353 -78 -244 -237 -452 -453 -592 -126 -81 -285 -141
-436 -164 -61 -9 -280 -7 -325 3 -36 8 -72 16 -95 20 -111 21 -291 110 -404
198 -217 170 -367 420 -407 678 -3 19 -7 46 -10 60 -6 38 -6 209 1 260 57 418
337 762 730 898 75 26 135 41 200 48 28 4 51 8 53 9 2 2 60 2 130 0 87 -2 155
-9 215 -24z m-2348 -865 c149 -64 182 -258 62 -363 -67 -59 -32 -57 -1027 -57
l-915 0 -52 28 c-133 73 -157 240 -49 347 34 34 63 49 115 58 19 3 437 6 930
5 825 0 899 -2 936 -18z m-211 -881 c82 -39 126 -103 127 -183 1 -101 -34
-160 -123 -209 -31 -17 -81 -18 -728 -21 -499 -2 -707 0 -736 9 -202 55 -209
345 -12 416 24 8 225 11 726 12 l693 1 53 -25z"/>
</g>
</svg>
